<svg width="18" height="28" viewBox="0 0 18 28" fill="none" xmlns="http://www.w3.org/2000/svg">
<path d="M13.9742 25.6H9.52422V22.5098C13.8871 22.1367 17.3242 18.4737 17.3242 14C17.3242 13.5873 16.987 13.25 16.5742 13.25C16.1615 13.25 15.8242 13.5873 15.8242 14C15.8242 17.8773 12.6515 21.05 8.77422 21.05C4.89695 21.05 1.72422 17.8773 1.72422 14C1.72422 13.5873 1.38695 13.25 0.974219 13.25C0.56149 13.25 0.224219 13.5873 0.224219 14C0.224219 18.4412 3.66107 22.1362 8.02422 22.5098V25.6H3.57422C3.16149 25.6 2.82422 25.9373 2.82422 26.35C2.82422 26.7627 3.16149 27.1 3.57422 27.1H13.9742C14.387 27.1 14.7242 26.7627 14.7242 26.35C14.7242 25.9373 14.387 25.6 13.9742 25.6ZM13.7492 14V5.875C13.7492 3.12227 11.5269 0.9 8.77422 0.9C6.02149 0.9 3.79922 3.12227 3.79922 5.875V14C3.79922 16.7527 6.02149 18.975 8.77422 18.975C11.5269 18.975 13.7492 16.7527 13.7492 14ZM8.77422 2.4C10.7015 2.4 12.2492 3.94773 12.2492 5.875V14C12.2492 15.9273 10.7015 17.475 8.77422 17.475C6.84695 17.475 5.29922 15.9273 5.29922 14V5.875C5.29922 3.94773 6.84695 2.4 8.77422 2.4Z" fill="white" stroke="white" stroke-width="0.2"/>
</svg>
