<svg fill="none" viewBox="0 0 24 10">
  <path fill="#fff" d="M22 0H2a2 2 0 0 0-2 2v6c0 1.1.9 2 2 2h20a2 2 0 0 0 2-2V2a2 2 0 0 0-2-2ZM6 5.3a.5.5 0 1 1-.5.9L5 5.9v.6a.5.5 0 1 1-1 0v-.6l-.5.3a.5.5 0 0 1-.7-.2c-.2-.2 0-.5.2-.7l.5-.3-.5-.3a.5.5 0 1 1 .5-.9l.5.3v-.6a.5.5 0 1 1 1 0v.6l.5-.3a.5.5 0 1 1 .5.9l-.5.3.5.3Zm5 0a.5.5 0 1 1-.5.9l-.5-.3v.6a.5.5 0 1 1-1 0v-.6l-.5.3a.5.5 0 0 1-.7-.2c-.2-.2 0-.5.2-.7l.5-.3-.5-.3a.5.5 0 1 1 .5-.9l.5.3v-.6a.5.5 0 1 1 1 0v.6l.5-.3a.5.5 0 1 1 .5.9l-.5.3.5.3Zm5 0a.5.5 0 1 1-.5.9l-.5-.3v.6a.5.5 0 1 1-1 0v-.6l-.5.3a.5.5 0 0 1-.7-.2c-.2-.2 0-.5.2-.7l.5-.3-.5-.3a.5.5 0 1 1 .5-.9l.5.3v-.6a.5.5 0 1 1 1 0v.6l.5-.3a.5.5 0 1 1 .5.9l-.5.3.5.3Zm5 0a.5.5 0 1 1-.5.9l-.5-.3v.6a.5.5 0 0 1-.5.5.5.5 0 0 1-.5-.5v-.6l-.5.3a.5.5 0 0 1-.7-.2c-.2-.2 0-.5.2-.7l.5-.3-.5-.3a.5.5 0 1 1 .5-.9l.5.3v-.6a.5.5 0 0 1 .5-.5.5.5 0 0 1 .5.5v.6l.5-.3a.5.5 0 1 1 .5.9l-.5.3.5.3Z"/>
</svg>
