<svg width="20" height="15" viewBox="0 0 20 15" fill="none" xmlns="http://www.w3.org/2000/svg">
<path d="M11.6715 9.74576C11.1739 10.0775 10.5959 10.2528 10 10.2528C9.40417 10.2528 8.8262 10.0775 8.32862 9.74576L0.133164 4.28195C0.0879223 4.2517 0.0435175 4.22022 0 4.18754L0 13.1406C0 14.1671 0.83301 14.9817 1.84114 14.9817H18.1589C19.1854 14.9817 20 14.1487 20 13.1406V4.1875C19.9564 4.22027 19.9119 4.25182 19.8666 4.28211L11.6715 9.74576Z" fill="white"/>
<path d="M0.783206 3.30439L8.97866 8.76823C9.2889 8.97507 9.64444 9.07847 9.99999 9.07847C10.3556 9.07847 10.7112 8.97503 11.0214 8.76823L19.2169 3.30439C19.7073 2.97763 20.0001 2.43075 20.0001 1.84051C20.0001 0.825628 19.1744 0 18.1595 0H1.84051C0.825668 3.90626e-05 9.68794e-07 0.825667 9.68794e-07 1.84149C-0.000303274 2.13102 0.0710561 2.41613 0.207714 2.67139C0.344373 2.92664 0.542081 3.14411 0.783206 3.30439Z" fill="white"/>
</svg>
