<svg width="16" height="22" viewBox="0 0 16 22" fill="none" xmlns="http://www.w3.org/2000/svg">
<path d="M15.5555 8H14.2222V6.22221C14.2222 2.79125 11.431 0 8 0C4.569 0 1.77779 2.79125 1.77779 6.22221V8H0.444458C0.386081 7.99996 0.328268 8.01143 0.274326 8.03375C0.220385 8.05608 0.171373 8.08881 0.130093 8.13009C0.088814 8.17137 0.056077 8.22039 0.0337544 8.27433C0.0114319 8.32827 -3.82512e-05 8.38608 9.58341e-08 8.44446V19.5556C9.58341e-08 20.536 0.797292 21.3333 1.77779 21.3333H14.2223C15.2027 21.3333 16 20.536 16 19.5555V8.44446C16 8.38608 15.9886 8.32827 15.9662 8.27433C15.9439 8.22039 15.9112 8.17137 15.8699 8.13009C15.8286 8.08881 15.7796 8.05608 15.7257 8.03375C15.6717 8.01143 15.6139 7.99996 15.5555 8ZM9.33075 17.2843C9.33763 17.3464 9.33133 17.4093 9.31226 17.4688C9.29319 17.5284 9.26179 17.5832 9.22009 17.6298C9.1784 17.6763 9.12736 17.7136 9.07029 17.7391C9.01323 17.7646 8.95142 17.7778 8.88892 17.7778H7.11113C7.04862 17.7778 6.98682 17.7646 6.92975 17.7391C6.87269 17.7136 6.82164 17.6763 6.77995 17.6298C6.73825 17.5832 6.70685 17.5284 6.68778 17.4688C6.66872 17.4093 6.66241 17.3464 6.66929 17.2843L6.94967 14.763C6.49438 14.4319 6.22225 13.908 6.22225 13.3333C6.22225 12.3529 7.01954 11.5555 8.00004 11.5555C8.98054 11.5555 9.77783 12.3528 9.77783 13.3333C9.77783 13.908 9.50571 14.4319 9.05042 14.763L9.33075 17.2843ZM11.5555 8H4.44446V6.22221C4.44446 4.26171 6.0395 2.66667 8 2.66667C9.9605 2.66667 11.5555 4.26171 11.5555 6.22221V8Z" fill="white"/>
</svg>
