<svg width="20" height="19" viewBox="0 0 20 19" fill="none" xmlns="http://www.w3.org/2000/svg">
<path d="M19.789 7.90541L15.4061 12.1645L16.4411 18.1801C16.4633 18.3091 16.4488 18.4417 16.3993 18.5629C16.3499 18.6842 16.2674 18.7892 16.1611 18.8661C16.0549 18.943 15.9292 18.9888 15.7983 18.9982C15.6673 19.0076 15.5364 18.9803 15.4202 18.9194L10.0008 16.0793L4.58215 18.9187C4.46595 18.9796 4.33497 19.0069 4.20403 18.9975C4.07308 18.9881 3.9474 18.9423 3.84118 18.8654C3.73496 18.7885 3.65245 18.6834 3.60297 18.5622C3.55348 18.441 3.53901 18.3084 3.56118 18.1794L4.59622 12.1638L0.212609 7.90541C0.118518 7.81402 0.051969 7.6982 0.0204946 7.57106C-0.0109798 7.44392 -0.00612221 7.31053 0.0345174 7.186C0.075157 7.06146 0.149956 6.95076 0.250446 6.86642C0.350937 6.78207 0.473106 6.72745 0.603124 6.70875L6.66067 5.83195L9.36965 0.359313C9.60677 -0.119771 10.3948 -0.119771 10.632 0.359313L13.3409 5.83195L19.3985 6.70875C19.5282 6.72794 19.65 6.78283 19.7501 6.86723C19.8503 6.95164 19.9248 7.06222 19.9654 7.18654C20.006 7.31086 20.011 7.444 19.9798 7.57099C19.9486 7.69799 19.8826 7.8138 19.789 7.90541Z" fill="white"/>
</svg>
