<svg width="22" height="22" viewBox="0 0 22 22" fill="none" xmlns="http://www.w3.org/2000/svg">
<path fill-rule="evenodd" clip-rule="evenodd" d="M0 4C0 1.79086 1.79086 0 4 0H18C20.2091 0 22 1.79086 22 4V18C22 20.2091 20.2091 22 18 22H4C1.79086 22 0 20.2091 0 18V4ZM7.46967 7.46967C7.76256 7.17678 8.23744 7.17678 8.53033 7.46967L11 9.93932L13.4697 7.46961C13.7626 7.17672 14.2375 7.17672 14.5304 7.46961C14.8233 7.7625 14.8233 8.23738 14.5304 8.53027L12.0606 11L14.5304 13.4697C14.8233 13.7626 14.8233 14.2375 14.5304 14.5304C14.2375 14.8233 13.7626 14.8233 13.4697 14.5304L11 12.0606L8.5303 14.5303C8.23741 14.8232 7.76253 14.8232 7.46964 14.5303C7.17675 14.2374 7.17675 13.7626 7.46964 13.4697L9.93933 11L7.46967 8.53033C7.17678 8.23744 7.17678 7.76256 7.46967 7.46967Z" fill="url(#paint0_linear_923_1069)"/>
<defs>
<linearGradient id="paint0_linear_923_1069" x1="2.71879" y1="-1.44495e-07" x2="24.405" y2="18.2977" gradientUnits="userSpaceOnUse">
<stop offset="0.277393" stop-color="#F21626"/>
<stop offset="1" stop-color="#AE1C27"/>
</linearGradient>
</defs>
</svg>
