<svg width="21" height="21" viewBox="0 0 21 21" fill="none" xmlns="http://www.w3.org/2000/svg">
<path d="M10.694 21.009C16.284 21.009 20.8157 16.4774 20.8157 10.8873C20.8157 5.29727 16.284 0.765625 10.694 0.765625C5.10391 0.765625 0.572266 5.29727 0.572266 10.8873C0.572266 16.4774 5.10391 21.009 10.694 21.009Z" fill="url(#paint0_linear_923_1081)"/>
<path d="M9.82689 15.0543C9.63674 15.0542 9.45439 14.9569 9.31995 14.7836L6.72654 11.261C6.59593 11.0868 6.52365 10.8535 6.52529 10.6113C6.52692 10.3691 6.60233 10.1375 6.73527 9.96622C6.86821 9.79497 7.04805 9.69783 7.23606 9.69572C7.42406 9.69362 7.60518 9.78672 7.74041 9.95497L9.78638 12.7724L13.5845 7.06465C13.6446 6.96806 13.7191 6.88802 13.8038 6.82929C13.8884 6.77056 13.9813 6.73434 14.077 6.72278C14.1726 6.71123 14.2692 6.72457 14.3608 6.76201C14.4524 6.79946 14.5372 6.86024 14.6102 6.94076C14.6832 7.02127 14.7429 7.11987 14.7857 7.23069C14.8286 7.34151 14.8537 7.4623 14.8596 7.58587C14.8655 7.70944 14.852 7.83327 14.82 7.95001C14.788 8.06674 14.7381 8.174 14.6733 8.2654L10.3711 14.731C10.3044 14.8331 10.2211 14.915 10.127 14.9708C10.0329 15.0267 9.93047 15.0552 9.82689 15.0543Z" fill="#181817" fill-opacity="0.75"/>
<defs>
<linearGradient id="paint0_linear_923_1081" x1="0.572266" y1="0.765625" x2="20.8157" y2="21.009" gradientUnits="userSpaceOnUse">
<stop offset="0.259263" stop-color="#55E27F"/>
<stop offset="0.827121" stop-color="#3E9E5B"/>
</linearGradient>
</defs>
</svg>
