<svg width="26" height="22" viewBox="0 0 26 22" fill="none" xmlns="http://www.w3.org/2000/svg">
<path fill-rule="evenodd" clip-rule="evenodd" d="M15.5896 1.93183L25.5816 17.9476C25.8182 18.3555 25.944 18.8181 25.9466 19.2897C25.9492 19.7612 25.8285 20.2252 25.5964 20.6356C25.3643 21.0461 25.0289 21.3887 24.6236 21.6295C24.2182 21.8704 23.7569 22.001 23.2854 22.0085H3.29266C2.82293 22.0013 2.36319 21.8718 1.95876 21.6328C1.55433 21.3937 1.21917 21.0535 0.986316 20.6454C0.753461 20.2374 0.63095 19.7758 0.630859 19.306C0.630769 18.8362 0.753101 18.3745 0.985798 17.9664L10.9938 1.92379C11.2369 1.53298 11.5758 1.21073 11.9783 0.98754C12.3808 0.764356 12.8337 0.647637 13.2939 0.648442C13.7542 0.649247 14.2066 0.767549 14.6084 0.99214C15.0101 1.21673 15.3479 1.54017 15.5896 1.93183ZM12.236 10.084L12.4735 13.6349C12.4916 13.9865 12.5649 14.3331 12.6906 14.662C12.7452 14.7636 12.8266 14.8483 12.9259 14.907C13.0252 14.9657 13.1387 14.996 13.254 14.9949C13.3694 14.9937 13.4822 14.9609 13.5803 14.9002C13.6784 14.8395 13.758 14.7531 13.8105 14.6504C13.9439 14.333 14.0192 13.9942 14.0329 13.6501L14.3508 9.99469C14.498 9.23865 14.4419 8.45709 14.1883 7.72981C13.89 7.1109 12.9067 7.1877 12.4914 7.63425C12.0399 8.11454 12.1289 8.98794 12.1994 9.67983C12.2141 9.82419 12.228 9.96066 12.236 10.084ZM12.5398 18.2096C12.744 18.4035 13.0145 18.5123 13.2961 18.5139C13.4474 18.5147 13.5973 18.4846 13.7365 18.4253C13.8756 18.366 14.0012 18.2787 14.1054 18.169C14.2096 18.0593 14.2902 17.9294 14.3422 17.7873C14.3942 17.6452 14.4166 17.494 14.4079 17.3429C14.3992 17.1919 14.3597 17.0442 14.2917 16.909C14.2238 16.7739 14.1288 16.654 14.0128 16.557C13.8967 16.4599 13.762 16.3876 13.6169 16.3447C13.4718 16.3017 13.3195 16.2889 13.1693 16.3071C12.8897 16.3409 12.6335 16.48 12.4528 16.696C12.2721 16.9121 12.1805 17.1888 12.1967 17.47C12.2129 17.7512 12.3355 18.0156 12.5398 18.2096Z" fill="url(#paint0_linear_923_1091)"/>
<defs>
<linearGradient id="paint0_linear_923_1091" x1="2.6087" y1="0.648437" x2="23.9688" y2="22.0085" gradientUnits="userSpaceOnUse">
<stop offset="0.297393" stop-color="#FFD54F"/>
<stop offset="1" stop-color="#BD9E3C"/>
</linearGradient>
</defs>
</svg>
