<svg viewBox="0 0 341 60" fill="none" xmlns="http://www.w3.org/2000/svg">
<g filter="url(#filter0_i_101_16)">
<rect x="0.5" y="0.5" width="340" height="59" stroke="url(#paint0_linear_101_16)"/>
</g>
<path d="M329 9.53674e-07L341 4.29137e-07L341 12L329 9.53674e-07Z" fill="url(#paint1_linear_101_16)"/>
<path d="M9.53674e-07 12L-9.53991e-08 9.53989e-08L12 -9.53674e-07L9.53674e-07 12Z" fill="url(#paint2_linear_101_16)"/>
<path d="M12 60L-1.47821e-06 60L-9.53674e-07 48L12 60Z" fill="url(#paint3_linear_101_16)"/>
<path d="M341 48V60H329L341 48Z" fill="url(#paint4_linear_101_16)"/>
<defs>
<filter id="filter0_i_101_16" x="0" y="0" width="341" height="64" filterUnits="userSpaceOnUse" color-interpolation-filters="sRGB">
<feFlood flood-opacity="0" result="BackgroundImageFix"/>
<feBlend mode="normal" in="SourceGraphic" in2="BackgroundImageFix" result="shape"/>
<feColorMatrix in="SourceAlpha" type="matrix" values="0 0 0 0 0 0 0 0 0 0 0 0 0 0 0 0 0 0 127 0" result="hardAlpha"/>
<feOffset dy="4"/>
<feGaussianBlur stdDeviation="15"/>
<feComposite in2="hardAlpha" operator="arithmetic" k2="-1" k3="1"/>
<feColorMatrix type="matrix" values="0 0 0 0 0 0 0 0 0 0 0 0 0 0 0 0 0 0 0.5 0"/>
<feBlend mode="normal" in2="shape" result="effect1_innerShadow_101_16"/>
</filter>
<linearGradient id="paint0_linear_101_16" x1="170.5" y1="0" x2="170.5" y2="60" gradientUnits="userSpaceOnUse">
<stop stop-color="#7A7369"/>
<stop offset="0.510417" stop-color="#EAC48B"/>
<stop offset="1" stop-color="#7A6969"/>
</linearGradient>
<linearGradient id="paint1_linear_101_16" x1="329" y1="6" x2="341" y2="6" gradientUnits="userSpaceOnUse">
<stop stop-color="#7A7369"/>
<stop offset="0.510417" stop-color="#EAC48B"/>
<stop offset="1" stop-color="#7A6969"/>
</linearGradient>
<linearGradient id="paint2_linear_101_16" x1="6" y1="12" x2="6" y2="-4.29136e-07" gradientUnits="userSpaceOnUse">
<stop stop-color="#7A7369"/>
<stop offset="0.510417" stop-color="#EAC48B"/>
<stop offset="1" stop-color="#7A6969"/>
</linearGradient>
<linearGradient id="paint3_linear_101_16" x1="12" y1="54" x2="-1.21594e-06" y2="54" gradientUnits="userSpaceOnUse">
<stop stop-color="#7A7369"/>
<stop offset="0.510417" stop-color="#EAC48B"/>
<stop offset="1" stop-color="#7A6969"/>
</linearGradient>
<linearGradient id="paint4_linear_101_16" x1="335" y1="48" x2="335" y2="60" gradientUnits="userSpaceOnUse">
<stop stop-color="#7A7369"/>
<stop offset="0.510417" stop-color="#EAC48B"/>
<stop offset="1" stop-color="#7A6969"/>
</linearGradient>
</defs>
</svg>
