<svg viewBox="0 0 418 50" fill="none" xmlns="http://www.w3.org/2000/svg">
<g filter="url(#filter0_i_0_22)">
<path fill-rule="evenodd" clip-rule="evenodd" d="M0 0V2.98969V41V43V48V50H2H7H9H409H411H416H418V48V43V41V2.98969V0L416 2.22222L409 10V41H9V10L2 2.22222L0 0ZM409 43H9V48H409V43ZM416 41V5.21192L411 10.7675V41H416ZM416 43H411V48H416V43ZM7 41H2V5.21192L7 10.7675V41ZM2 43H7V48H2V43Z" fill="url(#paint0_linear_0_22)"/>
</g>
<defs>
<filter id="filter0_i_0_22" x="0" y="0" width="418" height="54" filterUnits="userSpaceOnUse" color-interpolation-filters="sRGB">
<feFlood flood-opacity="0" result="BackgroundImageFix"/>
<feBlend mode="normal" in="SourceGraphic" in2="BackgroundImageFix" result="shape"/>
<feColorMatrix in="SourceAlpha" type="matrix" values="0 0 0 0 0 0 0 0 0 0 0 0 0 0 0 0 0 0 127 0" result="hardAlpha"/>
<feOffset dy="4"/>
<feGaussianBlur stdDeviation="15"/>
<feComposite in2="hardAlpha" operator="arithmetic" k2="-1" k3="1"/>
<feColorMatrix type="matrix" values="0 0 0 0 0 0 0 0 0 0 0 0 0 0 0 0 0 0 0.5 0"/>
<feBlend mode="normal" in2="shape" result="effect1_innerShadow_0_22"/>
</filter>
<linearGradient id="paint0_linear_0_22" x1="209" y1="0" x2="209" y2="50" gradientUnits="userSpaceOnUse">
<stop stop-color="#5E584F"/>
<stop offset="0.510417" stop-color="#CCA770"/>
<stop offset="1" stop-color="#675A5A"/>
</linearGradient>
</defs>
</svg>
