<svg viewBox="0 0 66 66" fill="none" xmlns="http://www.w3.org/2000/svg">
<path fill-rule="evenodd" clip-rule="evenodd" d="M0 7C0 4.23858 2.23858 2 5 2H61C63.7614 2 66 4.23858 66 7V61C66 63.7614 63.7614 66 61 66H5C2.23858 66 0 63.7614 0 61V7ZM5 6C4.44772 6 4 6.44772 4 7L4.5 9V12.5L5 14.5L4.5 20.5L4 34V40.5L4.5 47.5L4 61C4 61.5523 4.44772 62 5 62H61C61.5523 62 62 61.5523 62 61V45L61.5 30.5L62 18.5L61.5 12.5L62 7C62 6.44772 61.5523 6 61 6H53.5L46 5.5L32.5 6.5L18 7L12.5 6H5Z" fill="#343434"/>
<path fill-rule="evenodd" clip-rule="evenodd" d="M0 5C0 2.23858 2.23858 0 5 0H61C63.7614 0 66 2.23858 66 5V59C66 61.7614 63.7614 64 61 64H5C2.23858 64 0 61.7614 0 59V5ZM5 4C4.44772 4 4 4.44772 4 5L3.5 8.5L4 10.5L3.5 15L4 18L4.5 29.5L3.5 39.5L4 49.5V59C4 59.5523 4.44772 60 5 60H13H18.5H24.5H33H40H41H43.5H47H54.5H61C61.5523 60 62 59.5523 62 59L62.5 43.5L62 32L61.5 25L62.5 18.5L62 5C62 4.44772 61.5523 4 61 4L54.5 3.5L47 4H33L30 3.5L29.3702 3.68894C28.2024 4.03929 26.9367 3.78055 26 3L23.5 4L22.75 4.25L19 4L12 3.5L5 4Z" fill="url(#paint0_linear_1_86)"/>
<defs>
<linearGradient id="paint0_linear_1_86" x1="33" y1="0" x2="33" y2="64" gradientUnits="userSpaceOnUse">
<stop stop-color="#7A7369"/>
<stop offset="0.510417" stop-color="#EAC48B"/>
<stop offset="1" stop-color="#7A6969"/>
</linearGradient>
</defs>
</svg>
