<svg xmlns="http://www.w3.org/2000/svg" fill="none" viewBox="0 0 40 47">
  <rect width="40" height="47" fill="#fff" rx="6"/>
  <path fill="#000" d="M22 10h-4c-2.12 0-4.15.82-5.65 2.26A7.59 7.59 0 0 0 10 17.71V29.3c0 2.04.85 4 2.35 5.45A8.16 8.16 0 0 0 18 37h4c2.12 0 4.15-.82 5.65-2.26A7.59 7.59 0 0 0 30 29.29V17.7c0-2.04-.85-4-2.35-5.45A8.16 8.16 0 0 0 22 10Zm6 7.71v2.9h-8v-8.68h2c1.6 0 3.12.61 4.24 1.7A5.69 5.69 0 0 1 28 17.7Zm-6 17.36h-4c-1.6 0-3.12-.61-4.24-1.7A5.69 5.69 0 0 1 12 29.3v-6.75h16v6.75c0 1.53-.63 3-1.76 4.09a6.12 6.12 0 0 1-4.24 1.7Z"/>
</svg>
