<svg xmlns="http://www.w3.org/2000/svg" fill="none" viewBox="0 0 100 20">
  <rect width="6" height="10" y="5" fill="#fff" fill-opacity=".5" rx="3"/>
  <rect width="6" height="8" x="47" y="6" fill="#fff" fill-opacity=".5" rx="3"/>
  <rect width="6" height="16" fill="#fff" fill-opacity=".5" rx="3" transform="matrix(-1 0 0 1 18 2)"/>
  <rect width="6" height="16" x="36" y="2" fill="#fff" fill-opacity=".5" rx="3"/>
  <rect width="6" height="20" fill="#fff" fill-opacity=".5" rx="3" transform="matrix(-1 0 0 1 30 0)"/>
  <rect width="6" height="16" fill="#fff" fill-opacity=".5" rx="3" transform="matrix(-1 0 0 1 64 2)"/>
  <rect width="6" height="10" fill="#fff" fill-opacity=".5" rx="3" transform="matrix(-1 0 0 1 100 5)"/>
  <rect width="6" height="16" x="82" y="2" fill="#fff" fill-opacity=".5" rx="3"/>
  <rect width="6" height="20" fill="#fff" fill-opacity=".5" rx="3" transform="matrix(-1 0 0 1 76 0)"/>
</svg>
